<svg width="50" height="51" viewBox="0 0 50 51" xmlns="http://www.w3.org/2000/svg"><title>facebook-logo</title><path d="M34.3 50.316h12.627v.005a2.733 2.733 0 0 0 2.733-2.733V3.504A2.733 2.733 0 0 0 46.927.77H2.85A2.733 2.733 0 0 0 .113 3.505v44.08a2.732 2.732 0 0 0 2.734 2.733h23.73V31.132H20.12v-7.476h6.457V18.14c0-6.4 3.908-9.884 9.616-9.884 2.734 0 5.084.203 5.772.293v6.69h-3.962c-3.105 0-3.705 1.476-3.705 3.642v4.774h7.407l-.967 7.476H34.3v19.184z" fill-rule="nonzero" fill="#338C9E"/></svg>