<?xml version="1.0" encoding="UTF-8"?>
<svg width="62px" height="50px" viewBox="0 0 62 50" version="1.1" xmlns="http://www.w3.org/2000/svg" xmlns:xlink="http://www.w3.org/1999/xlink">
    <!-- Generator: Sketch 47.1 (45422) - http://www.bohemiancoding.com/sketch -->
    <title>twitter-logo</title>
    <desc>Created with Sketch.</desc>
    <defs></defs>
    <g id="Page-1" stroke="none" stroke-width="1" fill="none" fill-rule="evenodd">
        <g id="cupcakes" transform="translate(-192.000000, -432.000000)">
            <g id="twitter-logo" transform="translate(191.792820, 424.765625)">
                <rect id="Rectangle-5" fill-opacity="0" fill="#FFFFFF" x="0.619851582" y="0.584695984" width="60.769763" height="62.7954217"></rect>
                <path d="M19.7299164,56.6718553 C42.6644249,56.6718553 55.207304,37.6711761 55.207304,21.1964933 C55.207304,20.6576681 55.207304,20.1228942 55.1708422,19.5860946 C57.6105492,17.8203798 59.7163426,15.634333 61.3896146,13.1303201 C59.1148182,14.1380925 56.7017621,14.7990541 54.2309365,15.0911578 C56.833204,13.5337282 58.7811414,11.0840493 59.7123691,8.19784103 C57.2639464,9.65046528 54.5852801,10.6739761 51.7920433,11.2241752 C47.9276686,7.11397245 41.7861917,6.10791013 36.8123706,8.7702892 C31.8385494,11.4326683 29.2697995,17.101127 30.5469342,22.5962235 C20.5224771,22.0940481 11.1825319,17.3596494 4.85145274,9.57123767 C1.54423391,15.2672691 3.23372007,22.552901 8.71033269,26.2120244 C6.72666945,26.1532092 4.78623412,25.618252 3.05266776,24.6522672 L3.05266776,24.8102686 C3.05471242,30.7448691 7.23824611,35.8561002 13.0553707,37.0310679 C11.2195135,37.532871 9.29303617,37.6070196 7.42403938,37.2478134 C9.05758908,42.3261651 13.7379052,45.8050644 19.0715773,45.905479 C13.8513923,50.0087602 7.21411303,51.868481 0.621877241,51.0749601 C6.32338539,54.7338439 12.9573907,56.6746807 19.731942,56.6657783" id="Shape" fill="#338C9E"></path>
            </g>
        </g>
    </g>
</svg>